<?xml version="1.0" encoding="UTF-8" standalone="no"?>
<svg
   xmlns:dc="http://purl.org/dc/elements/1.1/"
   xmlns:cc="http://creativecommons.org/ns#"
   xmlns:rdf="http://www.w3.org/1999/02/22-rdf-syntax-ns#"
   xmlns:svg="http://www.w3.org/2000/svg"
   xmlns="http://www.w3.org/2000/svg"
   xmlns:sodipodi="http://sodipodi.sourceforge.net/DTD/sodipodi-0.dtd"
   xmlns:inkscape="http://www.inkscape.org/namespaces/inkscape"
   sodipodi:docname="dt].svg"
   inkscape:version="1.0 (4035a4fb49, 2020-05-01)"
   id="svg5644"
   version="1.1"
   viewBox="0 0 132.55624 132.55626"
   height="501"
   width="501">
  <defs
     id="defs5638" />
  <sodipodi:namedview
     inkscape:window-maximized="1"
     inkscape:window-y="-9"
     inkscape:window-x="-9"
     inkscape:window-height="1001"
     inkscape:window-width="1920"
     units="px"
     showgrid="false"
     inkscape:document-rotation="0"
     inkscape:current-layer="layer1"
     inkscape:document-units="px"
     inkscape:cy="313.97776"
     inkscape:cx="938.37231"
     inkscape:zoom="0.98994949"
     inkscape:pageshadow="2"
     inkscape:pageopacity="0.0"
     borderopacity="1.0"
     bordercolor="#666666"
     pagecolor="#ffffff"
     id="base" />
  <metadata
     id="metadata5641">
    <rdf:RDF>
      <cc:Work
         rdf:about="">
        <dc:format>image/svg+xml</dc:format>
        <dc:type
           rdf:resource="http://purl.org/dc/dcmitype/StillImage" />
        <dc:title></dc:title>
      </cc:Work>
    </rdf:RDF>
  </metadata>
  <g
     transform="translate(-175.25857,-1.0016347)"
     id="layer1"
     inkscape:groupmode="layer"
     inkscape:label="Layer 1">
    <path
       transform="matrix(0.26458333,0,0,0.26458333,175.39086,1.1339264)"
       d="M 249.52539,0 A 250.00001,250.00001 0 0 0 0,250 250.00001,250.00001 0 0 0 250,500 250.00001,250.00001 0 0 0 500,250 250.00001,250.00001 0 0 0 250,0 250.00001,250.00001 0 0 0 249.52539,0 Z"
       style="opacity:1;fill:#c50000;fill-opacity:1;stroke:none;stroke-width:1;stroke-miterlimit:4;stroke-dasharray:none;stroke-opacity:1;paint-order:stroke fill markers"
       id="circle5595" />
    <circle
       style="opacity:1;fill:#ffffff;fill-opacity:1;stroke-width:0.114524"
       id="circle5597"
       cx="241.5367"
       cy="67.279747"
       r="52.991882" />
    <g
       id="g5613"
       transform="matrix(0.25197693,0,0,0.25197693,175.33252,1.0759736)">
      <path
         d="m 192.539,379.398 10.2,25.424 h -10.2 l -6.675,-16.949 -5.85,5.85 v 11.1 h -10.049 v -47.248 l 10.049,-3.899 v 24.898 L 190.589,368.3 h 12.524 z"
         id="path5605" />
      <path
         d="m 262.062,404.822 v -22.049 c 0,-3.375 -3,-6 -6.525,-6 -3.3,0 -6.299,2.85 -6.299,5.625 v 22.424 h -9.525 v -22.049 c 0,-3.375 -2.85,-6 -6.375,-6 -3.525,0 -6.525,2.625 -6.525,5.85 v 22.199 h -10.049 v -36.674 h 10.049 v 1.95 c 3.525,-2.1 6,-2.85 9.525,-2.85 3.899,0 7.049,1.425 9.674,4.274 4.8,-3.375 7.05,-4.274 11.324,-4.274 7.725,0 14.625,5.324 14.625,12.374 v 25.199 h -9.899 z"
         id="path5607" />
      <path
         d="m 315.238,348.125 -23.474,63.147 h -12.675 l 23.474,-63.147 z"
         id="path5609" />
      <path
         d="m 345.613,404.822 v -22.049 c 0,-3.375 -2.475,-6 -5.775,-6 -3.524,0 -7.424,2.625 -7.424,5.625 v 22.424 h -10.05 v -47.248 l 10.05,-3.899 v 16.424 c 4.199,-2.325 6.674,-3 10.049,-3 7.2,0 13.05,5.475 13.05,12.3 v 25.424 h -9.9 z"
         id="path5611" />
    </g>
    <g
       transform="translate(1.7016592)"
       id="g5675">
      <g
         id="g5603"
         transform="matrix(0.26023971,0,0,0.26023971,19.346545,-3.3164763)" />
    </g>
    <g
       style="fill:#000000"
       transform="translate(-172.54774,2.0206984)"
       id="g6319">
      <path
         sodipodi:nodetypes="csssscccscscssscscscscccsscscscsc"
         d="m 405.31255,33.77238 c -2.89585,0.01364 -5.93626,0.1097 -8.89914,0.755428 -5.65829,1.23311 -11.06458,3.912318 -14.93398,7.869019 -4.17609,4.270351 -6.53985,9.880552 -7.38925,16.144394 -0.32121,2.369454 -0.21769,4.832779 -0.21769,7.352051 0,0.115158 0.009,0.228471 0.009,0.343372 v -0.0049 0.0049 c 0.41622,4.660488 2.59057,9.00074 5.9738,11.814987 3.53194,2.938028 8.73371,3.809544 13.24571,3.809564 5.69557,2.07e-4 10.87029,-1.679498 14.61541,-5.253645 2.7168,-2.5928 4.30168,-6.477334 4.30172,-10.41287 -4e-5,-3.758255 -0.29267,-5.34802 -1.43167,-7.695427 -0.98057,-2.020907 -2.53695,-3.877001 -4.44099,-5.068616 -1.66689,-1.043166 -3.517,-1.811064 -5.41585,-2.305386 -1.60629,-0.41818 -3.29141,-0.542756 -4.95127,-0.53127 -1.99512,0.01406 -4.06395,0.144889 -5.94231,0.720128 -2.04906,0.627508 -3.78738,1.589688 -4.95221,2.370243 0.72589,-2.64329 2.70586,-5.002938 4.84635,-6.72253 2.67015,-2.14511 6.2021,-3.066183 9.54872,-3.795249 1.6038,-0.34942 3.33088,-0.361945 4.96367,-0.346225 0.36553,0.0034 0.71648,0.0055 1.0702,0.009 z m -12.32811,25.526164 h 0.0213 c 2.40194,0 5.37951,0.183189 7.28722,1.802723 1.42009,1.205623 2.20533,3.067207 2.2052,5.135377 1.3e-4,1.90498 -1.02538,3.753421 -2.43605,4.918866 -1.88152,1.554433 -4.42749,1.953407 -7.05637,1.953426 -2.60952,1.68e-4 -5.19069,-0.239897 -7.07927,-1.773155 -1.46708,-1.19108 -2.4781,-3.179978 -2.47802,-5.099137 -1.2e-4,-2.05775 0.80824,-3.872071 2.21189,-5.065741 1.91917,-1.632054 4.91467,-1.868447 7.32253,-1.872359 z"
         style="opacity:1;fill:#000000;fill-rule:evenodd;stroke-width:1.17206;stroke-linecap:square;stroke-linejoin:round;paint-order:stroke fill markers"
         id="path1085" />
      <path
         d="m 436.25835,33.895418 c -10.00222,0 -18.05487,8.051712 -18.05487,18.053932 v 11.835977 c 0,10.002234 8.05265,18.05488 18.05487,18.05488 10.00223,0 18.05393,-8.052646 18.05393,-18.05488 V 51.94935 c 0,-10.00222 -8.0517,-18.053932 -18.05393,-18.053932 z m 0,9.006934 c 4.94441,0 8.92491,3.980503 8.92491,8.924914 v 12.081103 c 0,4.944411 -3.9805,8.924902 -8.92491,8.924902 -4.94441,0 -8.92491,-3.980491 -8.92491,-8.924902 V 51.827266 c 0,-4.944411 3.9805,-8.924914 8.92491,-8.924914 z"
         style="opacity:1;fill:#000000;fill-rule:evenodd;stroke-width:1.21929"
         id="rect22923" />
    </g>
  </g>
</svg>
